<svg width="54" height="54" viewBox="0 0 44 44" fill="none" xmlns="http://www.w3.org/2000/svg">
<path d="M22 13.5625C20.3312 13.5625 18.6999 14.0574 17.3124 14.9845C15.9248 15.9116 14.8434 17.2294 14.2048 18.7711C13.5662 20.3129 13.3991 22.0094 13.7246 23.6461C14.0502 25.2828 14.8538 26.7862 16.0338 27.9662C17.2138 29.1462 18.7172 29.9498 20.3539 30.2754C21.9906 30.6009 23.6871 30.4338 25.2289 29.7952C26.7706 29.1566 28.0884 28.0752 29.0155 26.6876C29.9427 25.3001 30.4375 23.6688 30.4375 22C30.435 19.763 29.5453 17.6183 27.9635 16.0365C26.3817 14.4547 24.237 13.565 22 13.5625ZM18.2164 27.357C18.6516 26.7619 19.2211 26.2779 19.8785 25.9442C20.5359 25.6106 21.2628 25.4367 22 25.4367C22.7373 25.4367 23.4641 25.6106 24.1215 25.9442C24.7789 26.2779 25.3484 26.7619 25.7836 27.357C24.6778 28.1412 23.3556 28.5625 22 28.5625C20.6444 28.5625 19.3222 28.1412 18.2164 27.357ZM19.8125 21.375C19.8125 20.9424 19.9408 20.5194 20.1812 20.1597C20.4215 19.8 20.7632 19.5196 21.1629 19.354C21.5626 19.1884 22.0024 19.1451 22.4268 19.2295C22.8511 19.3139 23.2409 19.5223 23.5468 19.8282C23.8527 20.1341 24.0611 20.5239 24.1455 20.9482C24.2299 21.3726 24.1866 21.8124 24.021 22.2121C23.8554 22.6118 23.575 22.9535 23.2153 23.1938C22.8556 23.4342 22.4327 23.5625 22 23.5625C21.4198 23.5625 20.8634 23.332 20.4532 22.9218C20.043 22.5116 19.8125 21.9552 19.8125 21.375ZM27.1563 26.0578C26.5486 25.2849 25.7741 24.6595 24.8906 24.2281C25.4537 23.658 25.8355 22.934 25.9881 22.1474C26.1408 21.3607 26.0573 20.5465 25.7484 19.8072C25.4394 19.0678 24.9187 18.4364 24.2517 17.9922C23.5847 17.5481 22.8013 17.3111 22 17.3111C21.1987 17.3111 20.4153 17.5481 19.7483 17.9922C19.0813 18.4364 18.5606 19.0678 18.2516 19.8072C17.9427 20.5465 17.8593 21.3607 18.0119 22.1474C18.1645 22.934 18.5463 23.658 19.1094 24.2281C18.2259 24.6595 17.4514 25.2849 16.8438 26.0578C16.0805 25.0903 15.6051 23.9274 15.472 22.7022C15.3389 21.4771 15.5534 20.2393 16.091 19.1304C16.6287 18.0215 17.4677 17.0864 18.512 16.4321C19.5563 15.7779 20.7638 15.4309 21.9961 15.4309C23.2284 15.4309 24.4359 15.7779 25.4802 16.4321C26.5245 17.0864 27.3635 18.0215 27.9012 19.1304C28.4388 20.2393 28.6533 21.4771 28.5202 22.7022C28.3871 23.9274 27.9117 25.0903 27.1484 26.0578H27.1563Z" fill="#9DA3AE"/>
</svg>
