<svg width="24" height="24" viewBox="0 0 24 24" fill="none" xmlns="http://www.w3.org/2000/svg">
<path d="M6.61792 3.94514C8.21101 2.88067 10.084 2.31251 12 2.3125C14.5684 2.31522 17.0309 3.33674 18.8471 5.15292C20.6633 6.9691 21.6848 9.4316 21.6875 12.0001C21.6875 13.916 21.1193 15.789 20.0549 17.3821C18.9904 18.9752 17.4774 20.2169 15.7072 20.9501C13.9371 21.6833 11.9893 21.8752 10.1101 21.5014C8.23088 21.1276 6.50473 20.2049 5.14991 18.8501C3.79509 17.4953 2.87244 15.7691 2.49865 13.8899C2.12485 12.0107 2.3167 10.0629 3.04992 8.29275C3.78315 6.52259 5.02482 5.00961 6.61792 3.94514ZM12.2847 6.88763C12.0895 6.75715 11.8599 6.6875 11.625 6.6875C11.3101 6.6875 11.008 6.81261 10.7853 7.03531C10.5626 7.25801 10.4375 7.56006 10.4375 7.875C10.4375 8.10987 10.5071 8.33946 10.6376 8.53474C10.7681 8.73002 10.9536 8.88223 11.1706 8.97211C11.3876 9.06199 11.6263 9.0855 11.8567 9.03968C12.087 8.99386 12.2986 8.88076 12.4647 8.71469C12.6308 8.54861 12.7439 8.33702 12.7897 8.10667C12.8355 7.87632 12.812 7.63755 12.7221 7.42056C12.6322 7.20358 12.48 7.01811 12.2847 6.88763ZM11.6452 16.8549C11.9382 17.1479 12.3356 17.3125 12.75 17.3125C12.9655 17.3125 13.1722 17.2269 13.3245 17.0745C13.4769 16.9222 13.5625 16.7155 13.5625 16.5C13.5625 16.2845 13.4769 16.0778 13.3245 15.9255C13.187 15.7879 13.0051 15.7048 12.8125 15.6899V12C12.8125 11.5856 12.6479 11.1882 12.3549 10.8951C12.0618 10.6021 11.6644 10.4375 11.25 10.4375C11.0345 10.4375 10.8279 10.5231 10.6755 10.6755C10.5231 10.8278 10.4375 11.0345 10.4375 11.25C10.4375 11.4655 10.5231 11.6722 10.6755 11.8245C10.8131 11.9621 10.9949 12.0452 11.1875 12.0601V15.75C11.1875 16.1644 11.3521 16.5618 11.6452 16.8549Z" fill="#121826" stroke="#121826" style="fill:#121826;fill:color(display-p3 0.0706 0.0941 0.1490);fill-opacity:1;stroke:#121826;stroke:color(display-p3 0.0706 0.0941 0.1490);stroke-opacity:1;" stroke-width="0.125"/>
</svg>
