<svg width="36" height="36" viewBox="0 0 36 36" fill="none" xmlns="http://www.w3.org/2000/svg">
<path d="M24.875 11.75H22.0625V10.8125C22.0625 10.2323 21.832 9.67594 21.4218 9.2657C21.0116 8.85547 20.4552 8.625 19.875 8.625H16.125C15.5448 8.625 14.9884 8.85547 14.5782 9.2657C14.168 9.67594 13.9375 10.2323 13.9375 10.8125V11.75H11.125C10.8764 11.75 10.6379 11.8488 10.4621 12.0246C10.2863 12.2004 10.1875 12.4389 10.1875 12.6875C10.1875 12.9361 10.2863 13.1746 10.4621 13.3504C10.6379 13.5262 10.8764 13.625 11.125 13.625H11.4375V24.25C11.4375 24.6644 11.6021 25.0618 11.8951 25.3549C12.1882 25.6479 12.5856 25.8125 13 25.8125H23C23.4144 25.8125 23.8118 25.6479 24.1049 25.3549C24.3979 25.0618 24.5625 24.6644 24.5625 24.25V13.625H24.875C25.1236 13.625 25.3621 13.5262 25.5379 13.3504C25.7137 13.1746 25.8125 12.9361 25.8125 12.6875C25.8125 12.4389 25.7137 12.2004 25.5379 12.0246C25.3621 11.8488 25.1236 11.75 24.875 11.75ZM15.8125 10.8125C15.8125 10.7296 15.8454 10.6501 15.904 10.5915C15.9626 10.5329 16.0421 10.5 16.125 10.5H19.875C19.9579 10.5 20.0374 10.5329 20.096 10.5915C20.1546 10.6501 20.1875 10.7296 20.1875 10.8125V11.75H15.8125V10.8125ZM22.6875 23.9375H13.3125V13.625H22.6875V23.9375ZM17.0625 16.125V21.125C17.0625 21.3736 16.9637 21.6121 16.7879 21.7879C16.6121 21.9637 16.3736 22.0625 16.125 22.0625C15.8764 22.0625 15.6379 21.9637 15.4621 21.7879C15.2863 21.6121 15.1875 21.3736 15.1875 21.125V16.125C15.1875 15.8764 15.2863 15.6379 15.4621 15.4621C15.6379 15.2863 15.8764 15.1875 16.125 15.1875C16.3736 15.1875 16.6121 15.2863 16.7879 15.4621C16.9637 15.6379 17.0625 15.8764 17.0625 16.125ZM20.8125 16.125V21.125C20.8125 21.3736 20.7137 21.6121 20.5379 21.7879C20.3621 21.9637 20.1236 22.0625 19.875 22.0625C19.6264 22.0625 19.3879 21.9637 19.2121 21.7879C19.0363 21.6121 18.9375 21.3736 18.9375 21.125V16.125C18.9375 15.8764 19.0363 15.6379 19.2121 15.4621C19.3879 15.2863 19.6264 15.1875 19.875 15.1875C20.1236 15.1875 20.3621 15.2863 20.5379 15.4621C20.7137 15.6379 20.8125 15.8764 20.8125 16.125Z" fill="#CA3A31"/>
</svg>
