<svg width="20" height="20" viewBox="0 0 20 20" fill="none" xmlns="http://www.w3.org/2000/svg">
<path d="M17.9797 5.51095L14.4891 2.01955C14.344 1.87439 14.1717 1.75924 13.9821 1.68067C13.7925 1.60211 13.5892 1.56168 13.384 1.56168C13.1787 1.56168 12.9755 1.60211 12.7859 1.68067C12.5963 1.75924 12.424 1.87439 12.2789 2.01955L2.64532 11.6539C2.4997 11.7986 2.38424 11.9707 2.30565 12.1604C2.22707 12.35 2.18691 12.5533 2.18751 12.7586V16.25C2.18751 16.6644 2.35213 17.0618 2.64515 17.3549C2.93818 17.6479 3.33561 17.8125 3.75001 17.8125H7.24141C7.44668 17.8131 7.65001 17.7729 7.83963 17.6943C8.02926 17.6157 8.2014 17.5003 8.3461 17.3547L17.9797 7.72033C18.2726 7.42731 18.4372 7.02996 18.4372 6.61564C18.4372 6.20132 18.2726 5.80396 17.9797 5.51095ZM7.10938 15.9375H4.06251V12.8906L10.625 6.32814L13.6719 9.37501L7.10938 15.9375ZM15 8.04689L11.9531 5.00001L13.3859 3.5672L16.4328 6.61408L15 8.04689Z" fill="#6C727F"/>
</svg>