<svg width="16" height="16" viewBox="0 0 16 16" fill="none" xmlns="http://www.w3.org/2000/svg">
<path d="M15.546 13.954C15.7573 14.1653 15.876 14.452 15.876 14.7509C15.876 15.0497 15.7573 15.3364 15.546 15.5477C15.3346 15.7591 15.048 15.8778 14.7491 15.8778C14.4502 15.8778 14.1636 15.7591 13.9522 15.5477L8.00002 9.59367L2.04596 15.5459C1.83461 15.7572 1.54797 15.8759 1.24908 15.8759C0.950197 15.8759 0.663552 15.7572 0.452208 15.5459C0.240864 15.3345 0.122131 15.0479 0.122131 14.749C0.122131 14.4501 0.240864 14.1635 0.452208 13.9521L6.40627 7.99992L0.454083 2.04586C0.242738 1.83451 0.124006 1.54787 0.124006 1.24898C0.124006 0.950097 0.242738 0.663452 0.454083 0.452108C0.665427 0.240763 0.952071 0.122031 1.25096 0.122031C1.54984 0.122031 1.83649 0.240763 2.04783 0.452108L8.00002 6.40617L13.9541 0.45117C14.1654 0.239826 14.4521 0.121094 14.751 0.121094C15.0498 0.121094 15.3365 0.239826 15.5478 0.45117C15.7592 0.662514 15.8779 0.949159 15.8779 1.24804C15.8779 1.54693 15.7592 1.83358 15.5478 2.04492L9.59377 7.99992L15.546 13.954Z" fill="#121826"/>
</svg>
