<svg width="32" height="32" viewBox="0 0 32 32" fill="none" xmlns="http://www.w3.org/2000/svg">
<path d="M10.4439 8.49453C10.3616 8.40173 10.2617 8.32619 10.1499 8.27229C10.0382 8.21839 9.91687 8.1872 9.79299 8.18054C9.66911 8.17387 9.54514 8.19186 9.42826 8.23346C9.31138 8.27506 9.20392 8.33945 9.11211 8.42288C9.0203 8.50632 8.94596 8.60715 8.89341 8.71953C8.84085 8.83191 8.81112 8.9536 8.80594 9.07755C8.80076 9.2015 8.82024 9.32525 8.86324 9.44162C8.90624 9.55799 8.9719 9.66467 9.05643 9.75547L10.3064 11.1344C7.61503 12.9266 6.44706 15.4984 6.39081 15.6195C6.33788 15.7395 6.31055 15.8692 6.31055 16.0004C6.31055 16.1315 6.33788 16.2613 6.39081 16.3813C6.41972 16.4453 7.10409 17.9641 8.61659 19.4758C10.6385 21.4953 13.1877 22.5625 16.0002 22.5625C17.3671 22.5701 18.7217 22.3045 19.9846 21.7813L21.5541 23.5078C21.7222 23.6884 21.9547 23.7954 22.2011 23.8057C22.4476 23.816 22.6882 23.7287 22.8708 23.5628C23.0534 23.3969 23.1632 23.1657 23.1764 22.9194C23.1897 22.6731 23.1053 22.4314 22.9416 22.2469L10.4439 8.49453ZM16.0002 20.6875C13.6885 20.6875 11.6666 19.8492 9.99159 18.1969C9.33273 17.5445 8.7658 16.8054 8.30643 16C8.71815 15.2727 9.7744 13.6641 11.5877 12.5398L18.626 20.2828C17.7772 20.5538 16.8912 20.6904 16.0002 20.6875ZM25.6096 16.3813C25.5814 16.4445 24.9064 17.9438 23.4221 19.4406C23.3371 19.535 23.2338 19.6111 23.1185 19.6643C23.0032 19.7175 22.8783 19.7468 22.7513 19.7503C22.6244 19.7538 22.4981 19.7314 22.38 19.6846C22.2619 19.6378 22.1546 19.5675 22.0646 19.478C21.9745 19.3885 21.9036 19.2816 21.8561 19.1638C21.8086 19.046 21.7855 18.9198 21.7882 18.7929C21.791 18.6659 21.8195 18.5408 21.8721 18.4252C21.9246 18.3096 22.0001 18.2059 22.0939 18.1203C22.7175 17.4864 23.2554 16.7735 23.6939 16C23.2348 15.1944 22.6679 14.4553 22.0088 13.8031C20.333 12.1508 18.3119 11.3125 16.0002 11.3125C15.7385 11.3125 15.4767 11.3234 15.2189 11.3453C15.0947 11.3586 14.969 11.347 14.8494 11.311C14.7297 11.2751 14.6184 11.2156 14.5221 11.136C14.4257 11.0564 14.3463 10.9584 14.2884 10.8477C14.2304 10.737 14.1952 10.6158 14.1848 10.4913C14.1744 10.3668 14.189 10.2414 14.2277 10.1226C14.2664 10.0038 14.3285 9.89398 14.4103 9.79951C14.4921 9.70505 14.5919 9.62788 14.704 9.57256C14.816 9.51723 14.938 9.48486 15.0627 9.47735C15.3697 9.45078 15.6877 9.4375 16.0002 9.4375C18.8127 9.4375 21.3619 10.5055 23.3822 12.525C24.8939 14.0367 25.5783 15.5563 25.6072 15.6195C25.6605 15.7394 25.6882 15.869 25.6887 16.0001C25.6891 16.1313 25.6621 16.2611 25.6096 16.3813Z" fill="#9DA3AE"/>
</svg>
