<svg width="21" height="20" viewBox="0 0 21 20" fill="none" xmlns="http://www.w3.org/2000/svg">
<path d="M17.8334 5V5.625C17.8334 5.79076 17.7675 5.94973 17.6503 6.06694C17.5331 6.18415 17.3741 6.25 17.2084 6.25H3.45837C3.29261 6.25 3.13364 6.18415 3.01643 6.06694C2.89922 5.94973 2.83337 5.79076 2.83337 5.625V5C2.83337 4.83424 2.89922 4.67527 3.01643 4.55806C3.13364 4.44085 3.29261 4.375 3.45837 4.375H17.2084C17.3741 4.375 17.5331 4.44085 17.6503 4.55806C17.7675 4.67527 17.8334 4.83424 17.8334 5ZM3.45837 9.375H13.4584C13.6241 9.375 13.7831 9.30915 13.9003 9.19194C14.0175 9.07473 14.0834 8.91576 14.0834 8.75V8.125C14.0834 7.95924 14.0175 7.80027 13.9003 7.68306C13.7831 7.56585 13.6241 7.5 13.4584 7.5H3.45837C3.29261 7.5 3.13364 7.56585 3.01643 7.68306C2.89922 7.80027 2.83337 7.95924 2.83337 8.125V8.75C2.83337 8.91576 2.89922 9.07473 3.01643 9.19194C3.13364 9.30915 3.29261 9.375 3.45837 9.375ZM17.2084 10.625H3.45837C3.29261 10.625 3.13364 10.6908 3.01643 10.8081C2.89922 10.9253 2.83337 11.0842 2.83337 11.25V11.875C2.83337 12.0408 2.89922 12.1997 3.01643 12.3169C3.13364 12.4342 3.29261 12.5 3.45837 12.5H17.2084C17.3741 12.5 17.5331 12.4342 17.6503 12.3169C17.7675 12.1997 17.8334 12.0408 17.8334 11.875V11.25C17.8334 11.0842 17.7675 10.9253 17.6503 10.8081C17.5331 10.6908 17.3741 10.625 17.2084 10.625ZM13.4584 13.75H3.45837C3.29261 13.75 3.13364 13.8158 3.01643 13.9331C2.89922 14.0503 2.83337 14.2092 2.83337 14.375V15C2.83337 15.1658 2.89922 15.3247 3.01643 15.4419C3.13364 15.5592 3.29261 15.625 3.45837 15.625H13.4584C13.6241 15.625 13.7831 15.5592 13.9003 15.4419C14.0175 15.3247 14.0834 15.1658 14.0834 15V14.375C14.0834 14.2092 14.0175 14.0503 13.9003 13.9331C13.7831 13.8158 13.6241 13.75 13.4584 13.75Z" fill="#CC7C2E"/>
</svg>
