<svg width="21" height="20" viewBox="0 0 21 20" fill="none" xmlns="http://www.w3.org/2000/svg">
<path d="M9.08337 4.6875C9.08337 4.44027 9.15669 4.1986 9.29404 3.99304C9.43139 3.78748 9.62661 3.62726 9.85502 3.53265C10.0834 3.43804 10.3348 3.41329 10.5772 3.46152C10.8197 3.50975 11.0424 3.6288 11.2173 3.80362C11.3921 3.97843 11.5111 4.20116 11.5594 4.44364C11.6076 4.68611 11.5828 4.93745 11.4882 5.16585C11.3936 5.39426 11.2334 5.58949 11.0278 5.72684C10.8223 5.86419 10.5806 5.9375 10.3334 5.9375C10.0019 5.9375 9.68391 5.8058 9.44949 5.57138C9.21507 5.33696 9.08337 5.01902 9.08337 4.6875ZM10.3334 8.75C10.0861 8.75 9.84447 8.82331 9.63891 8.96066C9.43335 9.09801 9.27313 9.29324 9.17853 9.52165C9.08392 9.75005 9.05916 10.0014 9.10739 10.2439C9.15562 10.4863 9.27468 10.7091 9.44949 10.8839C9.62431 11.0587 9.84704 11.1778 10.0895 11.226C10.332 11.2742 10.5833 11.2495 10.8117 11.1548C11.0401 11.0602 11.2354 10.9 11.3727 10.6945C11.5101 10.4889 11.5834 10.2472 11.5834 10C11.5834 9.66848 11.4517 9.35054 11.2173 9.11612C10.9828 8.8817 10.6649 8.75 10.3334 8.75ZM10.3334 14.0625C10.0861 14.0625 9.84447 14.1358 9.63891 14.2732C9.43335 14.4105 9.27313 14.6057 9.17853 14.8341C9.08392 15.0626 9.05916 15.3139 9.10739 15.5564C9.15562 15.7988 9.27468 16.0216 9.44949 16.1964C9.62431 16.3712 9.84704 16.4903 10.0895 16.5385C10.332 16.5867 10.5833 16.562 10.8117 16.4673C11.0401 16.3727 11.2354 16.2125 11.3727 16.007C11.5101 15.8014 11.5834 15.5597 11.5834 15.3125C11.5834 14.981 11.4517 14.663 11.2173 14.4286C10.9828 14.1942 10.6649 14.0625 10.3334 14.0625Z" fill="#9DA3AE"/>
</svg>
