<svg width="16" height="16" viewBox="0 0 16 16" fill="none" xmlns="http://www.w3.org/2000/svg">
<path d="M14.625 2.125L12.125 2.125C12.125 1.79348 11.9933 1.47554 11.7589 1.24112C11.5245 1.0067 11.2065 0.875 10.875 0.875L1.5 0.875C1.16848 0.875 0.850537 1.0067 0.616116 1.24112C0.381696 1.47554 0.25 1.79348 0.25 2.125L0.25 8.375C0.25 8.70652 0.381696 9.02446 0.616116 9.25888C0.850537 9.4933 1.16848 9.625 1.5 9.625H2.125L2.125 14.625C2.125 14.9565 2.2567 15.2745 2.49112 15.5089C2.72554 15.7433 3.04348 15.875 3.375 15.875H14.625C14.9565 15.875 15.2745 15.7433 15.5089 15.5089C15.7433 15.2745 15.875 14.9565 15.875 14.625V3.375C15.875 3.04348 15.7433 2.72554 15.5089 2.49112C15.2745 2.2567 14.9565 2.125 14.625 2.125ZM7.30781 3.81719C7.19054 3.69991 7.12465 3.54085 7.12465 3.375C7.12465 3.20915 7.19054 3.05009 7.30781 2.93281C7.42509 2.81554 7.58415 2.74965 7.75 2.74965C7.91585 2.74965 8.07491 2.81554 8.19219 2.93281L10.0672 4.80781C10.1253 4.86586 10.1714 4.93479 10.2029 5.01066C10.2343 5.08654 10.2505 5.16787 10.2505 5.25C10.2505 5.33213 10.2343 5.41346 10.2029 5.48934C10.1714 5.56521 10.1253 5.63414 10.0672 5.69219L8.19219 7.56719C8.07491 7.68446 7.91585 7.75035 7.75 7.75035C7.58415 7.75035 7.42509 7.68446 7.30781 7.56719C7.19054 7.44991 7.12465 7.29085 7.12465 7.125C7.12465 6.95915 7.19054 6.80009 7.30781 6.68281L8.74141 5.25L7.30781 3.81719ZM2.30781 5.69219C2.2497 5.63414 2.2036 5.56521 2.17215 5.48934C2.1407 5.41346 2.12451 5.33213 2.12451 5.25C2.12451 5.16787 2.1407 5.08654 2.17215 5.01066C2.2036 4.93479 2.2497 4.86586 2.30781 4.80781L4.18281 2.93281C4.30009 2.81554 4.45915 2.74965 4.625 2.74965C4.79085 2.74965 4.94991 2.81554 5.06719 2.93281C5.18446 3.05009 5.25035 3.20915 5.25035 3.375C5.25035 3.54085 5.18446 3.69991 5.06719 3.81719L3.63359 5.25L5.06719 6.68281C5.18446 6.80009 5.25035 6.95915 5.25035 7.125C5.25035 7.29085 5.18446 7.44991 5.06719 7.56719C4.94991 7.68446 4.79085 7.75035 4.625 7.75035C4.45915 7.75035 4.30009 7.68446 4.18281 7.56719L2.30781 5.69219ZM14.625 14.625H3.375V9.625H10.875C11.2065 9.625 11.5245 9.4933 11.7589 9.25888C11.9933 9.02446 12.125 8.70652 12.125 8.375V3.375H14.625V14.625Z" fill="#3662E3"/>
</svg>
