<svg width="21" height="20" viewBox="0 0 21 20" fill="none" xmlns="http://www.w3.org/2000/svg">
<path d="M16.2916 3.125H13.7916C13.7916 2.79348 13.6599 2.47554 13.4255 2.24112C13.1911 2.0067 12.8731 1.875 12.5416 1.875H3.16663C2.83511 1.875 2.51716 2.0067 2.28274 2.24112C2.04832 2.47554 1.91663 2.79348 1.91663 3.125V9.375C1.91663 9.70652 2.04832 10.0245 2.28274 10.2589C2.51716 10.4933 2.83511 10.625 3.16663 10.625H3.79163V15.625C3.79163 15.9565 3.92332 16.2745 4.15774 16.5089C4.39216 16.7433 4.71011 16.875 5.04163 16.875H16.2916C16.6231 16.875 16.9411 16.7433 17.1755 16.5089C17.4099 16.2745 17.5416 15.9565 17.5416 15.625V4.375C17.5416 4.04348 17.4099 3.72554 17.1755 3.49112C16.9411 3.2567 16.6231 3.125 16.2916 3.125ZM8.97444 4.81719C8.85716 4.69991 8.79128 4.54085 8.79128 4.375C8.79128 4.20915 8.85716 4.05009 8.97444 3.93281C9.09171 3.81554 9.25077 3.74965 9.41663 3.74965C9.58248 3.74965 9.74154 3.81554 9.85881 3.93281L11.7338 5.80781C11.7919 5.86586 11.838 5.93479 11.8695 6.01066C11.9009 6.08654 11.9171 6.16787 11.9171 6.25C11.9171 6.33213 11.9009 6.41346 11.8695 6.48934C11.838 6.56521 11.7919 6.63414 11.7338 6.69219L9.85881 8.56719C9.74154 8.68446 9.58248 8.75035 9.41663 8.75035C9.25077 8.75035 9.09171 8.68446 8.97444 8.56719C8.85716 8.44991 8.79128 8.29085 8.79128 8.125C8.79128 7.95915 8.85716 7.80009 8.97444 7.68281L10.408 6.25L8.97444 4.81719ZM3.97444 6.69219C3.91633 6.63414 3.87023 6.56521 3.83878 6.48934C3.80732 6.41346 3.79113 6.33213 3.79113 6.25C3.79113 6.16787 3.80732 6.08654 3.83878 6.01066C3.87023 5.93479 3.91633 5.86586 3.97444 5.80781L5.84944 3.93281C5.96671 3.81554 6.12577 3.74965 6.29163 3.74965C6.45748 3.74965 6.61654 3.81554 6.73381 3.93281C6.85109 4.05009 6.91697 4.20915 6.91697 4.375C6.91697 4.54085 6.85109 4.69991 6.73381 4.81719L5.30022 6.25L6.73381 7.68281C6.85109 7.80009 6.91697 7.95915 6.91697 8.125C6.91697 8.29085 6.85109 8.44991 6.73381 8.56719C6.61654 8.68446 6.45748 8.75035 6.29163 8.75035C6.12577 8.75035 5.96671 8.68446 5.84944 8.56719L3.97444 6.69219ZM16.2916 15.625H5.04163V10.625H12.5416C12.8731 10.625 13.1911 10.4933 13.4255 10.2589C13.6599 10.0245 13.7916 9.70652 13.7916 9.375V4.375H16.2916V15.625Z" fill="#3662E3"/>
</svg>
