<svg width="20" height="17" viewBox="0 0 20 17" fill="none" xmlns="http://www.w3.org/2000/svg">
<path d="M18.7704 13.5391L11.9383 1.67421C11.7404 1.33578 11.4574 1.05507 11.1173 0.859985C10.7773 0.664903 10.3921 0.562256 10 0.562256C9.60801 0.562256 9.22281 0.664903 8.88276 0.859985C8.5427 1.05507 8.25966 1.33578 8.06177 1.67421L1.22974 13.5391C1.03772 13.8675 0.936523 14.2411 0.936523 14.6215C0.936523 15.0019 1.03772 15.3755 1.22974 15.7039C1.42543 16.044 1.70809 16.3259 2.04871 16.5208C2.38933 16.7156 2.77564 16.8163 3.16802 16.8125H16.8321C17.2242 16.816 17.6102 16.7152 17.9505 16.5204C18.2908 16.3256 18.5732 16.0438 18.7688 15.7039C18.9611 15.3756 19.0625 15.0021 19.0628 14.6217C19.0631 14.2413 18.9621 13.8676 18.7704 13.5391ZM17.1454 14.7656C17.1136 14.8198 17.0678 14.8643 17.0128 14.8946C16.9578 14.9248 16.8956 14.9397 16.8329 14.9375H3.16802C3.10528 14.9397 3.04312 14.9248 2.98811 14.8946C2.9331 14.8643 2.88729 14.8198 2.85552 14.7656C2.82857 14.7218 2.8143 14.6714 2.8143 14.6199C2.8143 14.5685 2.82857 14.518 2.85552 14.4742L9.68755 2.60937C9.72138 2.5573 9.76769 2.5145 9.82226 2.48488C9.87684 2.45525 9.93795 2.43973 10 2.43973C10.0621 2.43973 10.1233 2.45525 10.1778 2.48488C10.2324 2.5145 10.2787 2.5573 10.3125 2.60937L17.1438 14.4742C17.171 14.5179 17.1855 14.5682 17.1858 14.6197C17.1861 14.6711 17.1721 14.7217 17.1454 14.7656ZM9.06255 9.62499V7.12499C9.06255 6.87635 9.16132 6.6379 9.33714 6.46208C9.51295 6.28627 9.75141 6.18749 10 6.18749C10.2487 6.18749 10.4871 6.28627 10.663 6.46208C10.8388 6.6379 10.9375 6.87635 10.9375 7.12499V9.62499C10.9375 9.87363 10.8388 10.1121 10.663 10.2879C10.4871 10.4637 10.2487 10.5625 10 10.5625C9.75141 10.5625 9.51295 10.4637 9.33714 10.2879C9.16132 10.1121 9.06255 9.87363 9.06255 9.62499ZM11.25 12.75C11.25 12.9972 11.1767 13.2389 11.0394 13.4445C10.902 13.65 10.7068 13.8102 10.4784 13.9048C10.25 13.9995 9.99866 14.0242 9.75619 13.976C9.51371 13.9277 9.29098 13.8087 9.11617 13.6339C8.94135 13.4591 8.8223 13.2363 8.77407 12.9939C8.72584 12.7514 8.75059 12.5 8.8452 12.2716C8.93981 12.0432 9.10003 11.848 9.30559 11.7107C9.51115 11.5733 9.75282 11.5 10 11.5C10.3316 11.5 10.6495 11.6317 10.8839 11.8661C11.1184 12.1005 11.25 12.4185 11.25 12.75Z" fill="#6C727F"/>
</svg>
