<svg width="44" height="36" viewBox="0 0 44 36" fill="none" xmlns="http://www.w3.org/2000/svg">
<path d="M21.5418 0C14.3604 11.9992 7.18142 23.9984 0 35.9976C2.36366 35.2423 4.97664 34.5359 7.82184 33.9517C11.437 33.2086 14.7857 32.8004 17.7849 32.5951V25.6238C15.299 26.0834 13.3607 26.912 12.1385 27.5255L21.5369 11.4492C24.6706 16.8072 27.8017 22.1676 30.9354 27.5255C29.7279 26.9193 27.7871 26.0883 25.289 25.6263V32.5951C28.2906 32.8004 31.6418 33.211 35.2569 33.9517C38.1021 34.5359 40.7175 35.2447 43.0812 36C35.8998 24.0008 28.7208 12.0016 21.5394 0.00244432L21.5418 0Z" fill="#F3B23E"/>
</svg>
