<svg width="14" height="14" viewBox="0 0 14 14" fill="none" xmlns="http://www.w3.org/2000/svg">
<path d="M6.375 3.25C6.375 3.86807 6.19172 4.47225 5.84834 4.98616C5.50496 5.50006 5.01691 5.9006 4.44589 6.13713C3.87487 6.37365 3.24654 6.43553 2.64034 6.31496C2.03415 6.19438 1.47733 5.89675 1.04029 5.45971C0.603254 5.02267 0.305626 4.46585 0.185047 3.85966C0.0644686 3.25347 0.126354 2.62513 0.362878 2.05412C0.599402 1.4831 0.999941 0.995038 1.51384 0.651659C2.02775 0.308279 2.63193 0.125001 3.25 0.125001C4.0788 0.125001 4.87366 0.454242 5.45971 1.04029C6.04576 1.62634 6.375 2.4212 6.375 3.25ZM10.75 6.375C11.3681 6.375 11.9723 6.19172 12.4862 5.84834C13.0001 5.50496 13.4006 5.01691 13.6371 4.44589C13.8736 3.87487 13.9355 3.24654 13.815 2.64034C13.6944 2.03415 13.3967 1.47733 12.9597 1.04029C12.5227 0.603254 11.9658 0.305626 11.3597 0.185047C10.7535 0.0644686 10.1251 0.126354 9.55412 0.362878C8.9831 0.599402 8.49504 0.999941 8.15166 1.51384C7.80828 2.02775 7.625 2.63193 7.625 3.25C7.625 4.0788 7.95424 4.87366 8.54029 5.45971C9.12634 6.04576 9.9212 6.375 10.75 6.375ZM3.25 7.625C2.63193 7.625 2.02775 7.80828 1.51384 8.15166C0.999941 8.49504 0.599402 8.9831 0.362878 9.55412C0.126354 10.1251 0.0644686 10.7535 0.185047 11.3597C0.305626 11.9658 0.603254 12.5227 1.04029 12.9597C1.47733 13.3967 2.03415 13.6944 2.64034 13.815C3.24654 13.9355 3.87487 13.8736 4.44589 13.6371C5.01691 13.4006 5.50496 13.0001 5.84834 12.4862C6.19172 11.9723 6.375 11.3681 6.375 10.75C6.375 9.9212 6.04576 9.12634 5.45971 8.54029C4.87366 7.95424 4.0788 7.625 3.25 7.625ZM10.75 7.625C10.1319 7.625 9.52775 7.80828 9.01384 8.15166C8.49994 8.49504 8.0994 8.9831 7.86288 9.55412C7.62635 10.1251 7.56447 10.7535 7.68505 11.3597C7.80563 11.9658 8.10325 12.5227 8.54029 12.9597C8.97733 13.3967 9.53415 13.6944 10.1403 13.815C10.7465 13.9355 11.3749 13.8736 11.9459 13.6371C12.5169 13.4006 13.005 13.0001 13.3483 12.4862C13.6917 11.9723 13.875 11.3681 13.875 10.75C13.875 9.9212 13.5458 9.12634 12.9597 8.54029C12.3737 7.95424 11.5788 7.625 10.75 7.625Z" fill="#4CA154"/>
</svg>
