<svg width="20" height="20" viewBox="0 0 20 20" fill="none" xmlns="http://www.w3.org/2000/svg">
<path d="M11.9141 12.2289C12.8336 11.506 13.5048 10.5144 13.8345 9.39218C14.1641 8.26993 14.1357 7.07284 13.7532 5.96749C13.3708 4.86214 12.6532 3.90352 11.7005 3.22502C10.7477 2.54652 9.60715 2.1819 8.4375 2.1819C7.26784 2.1819 6.12728 2.54652 5.17453 3.22502C4.22177 3.90352 3.50423 4.86214 3.12175 5.96749C2.73926 7.07284 2.71086 8.26993 3.0405 9.39218C3.37015 10.5144 4.04143 11.506 4.96093 12.2289C3.48212 12.8321 2.17538 13.7916 1.15703 15.0219C0.997069 15.2123 0.919305 15.4585 0.940842 15.7062C0.96238 15.954 1.08145 16.183 1.27187 16.343C1.46229 16.5029 1.70845 16.5807 1.9562 16.5592C2.20396 16.5376 2.43301 16.4185 2.59297 16.2281C4.10468 14.4289 6.18047 13.4375 8.4375 13.4375C11.3281 13.4375 13.2125 14.9547 14.282 16.2281C14.442 16.4185 14.671 16.5376 14.9188 16.5592C15.1665 16.5807 15.4127 16.5029 15.6031 16.343C15.7935 16.183 15.9126 15.954 15.9341 15.7062C15.9557 15.4585 15.8779 15.2123 15.718 15.0219C14.6996 13.7916 13.3929 12.8321 11.9141 12.2289ZM4.6875 7.8125C4.6875 7.07082 4.90743 6.3458 5.31949 5.72911C5.73154 5.11243 6.31721 4.63178 7.00243 4.34795C7.68766 4.06412 8.44166 3.98986 9.16908 4.13456C9.89651 4.27925 10.5647 4.6364 11.0891 5.16085C11.6136 5.6853 11.9707 6.35348 12.1154 7.08091C12.2601 7.80834 12.1859 8.56234 11.902 9.24756C11.6182 9.93279 11.1376 10.5185 10.5209 10.9305C9.9042 11.3426 9.17918 11.5625 8.4375 11.5625C7.44325 11.5615 6.49003 11.166 5.78699 10.463C5.08395 9.75997 4.68853 8.80674 4.6875 7.8125ZM18.9633 11.0336L18.7047 11.118L18.8609 11.3383C18.9374 11.4376 18.9931 11.5512 19.0249 11.6724C19.0566 11.7936 19.0638 11.9199 19.0459 12.044C19.028 12.168 18.9854 12.2871 18.9207 12.3944C18.8559 12.5017 18.7704 12.5949 18.669 12.6686C18.5676 12.7422 18.4525 12.7948 18.3305 12.8232C18.2084 12.8516 18.0819 12.8552 17.9585 12.8339C17.835 12.8126 17.717 12.7667 17.6116 12.699C17.5061 12.6314 17.4153 12.5432 17.3445 12.4398L17.1875 12.2195L17.0312 12.4398C16.9604 12.5432 16.8696 12.6314 16.7642 12.699C16.6587 12.7667 16.5408 12.8126 16.4173 12.8339C16.2938 12.8552 16.1674 12.8516 16.0453 12.8232C15.9233 12.7948 15.8082 12.7422 15.7068 12.6686C15.6054 12.5949 15.5198 12.5017 15.4551 12.3944C15.3904 12.2871 15.3478 12.168 15.3299 12.044C15.312 11.9199 15.3191 11.7936 15.3509 11.6724C15.3827 11.5512 15.4384 11.4376 15.5148 11.3383L15.6711 11.118L15.4125 11.0336C15.1803 10.9534 14.9888 10.7852 14.8793 10.5653C14.7698 10.3453 14.7511 10.0912 14.827 9.85758C14.903 9.62394 15.0676 9.42945 15.2856 9.31597C15.5035 9.20249 15.7572 9.17908 15.9922 9.25078L16.2508 9.33438V9.0625C16.2508 8.81386 16.3495 8.5754 16.5254 8.39959C16.7012 8.22377 16.9396 8.125 17.1883 8.125C17.4369 8.125 17.6754 8.22377 17.8512 8.39959C18.027 8.5754 18.1258 8.81386 18.1258 9.0625V9.33438L18.3844 9.25078C18.6194 9.17908 18.8731 9.20249 19.091 9.31597C19.3089 9.42945 19.4736 9.62394 19.5495 9.85758C19.6255 10.0912 19.6067 10.3453 19.4972 10.5653C19.3877 10.7852 19.1963 10.9534 18.9641 11.0336H18.9633Z" fill="#9DA3AE"/>
</svg>