<svg width="20" height="20" viewBox="0 0 20 20" fill="none" xmlns="http://www.w3.org/2000/svg">
<path d="M18.1633 16.8367L14.4531 13.125C15.5655 11.6754 16.0849 9.85688 15.9059 8.03841C15.7268 6.21993 14.8627 4.53765 13.4889 3.33282C12.1151 2.12799 10.3345 1.49084 8.50821 1.55061C6.68191 1.61038 4.94673 2.3626 3.65466 3.65467C2.36258 4.94675 1.61036 6.68193 1.55059 8.50822C1.49082 10.3345 2.12798 12.1152 3.3328 13.489C4.53763 14.8628 6.21991 15.7268 8.03839 15.9059C9.85687 16.0849 11.6754 15.5656 13.125 14.4531L16.8383 18.1672C16.9255 18.2544 17.029 18.3236 17.143 18.3708C17.2569 18.418 17.379 18.4423 17.5023 18.4423C17.6257 18.4423 17.7478 18.418 17.8617 18.3708C17.9757 18.3236 18.0792 18.2544 18.1664 18.1672C18.2536 18.08 18.3228 17.9765 18.37 17.8625C18.4172 17.7486 18.4415 17.6265 18.4415 17.5031C18.4415 17.3798 18.4172 17.2577 18.37 17.1438C18.3228 17.0298 18.2536 16.9263 18.1664 16.8391L18.1633 16.8367ZM3.4375 8.75002C3.4375 7.6993 3.74907 6.67218 4.33282 5.79855C4.91656 4.92491 5.74626 4.244 6.71699 3.84191C7.68773 3.43981 8.75589 3.33461 9.78642 3.53959C10.8169 3.74458 11.7635 4.25054 12.5065 4.99351C13.2495 5.73648 13.7554 6.68307 13.9604 7.7136C14.1654 8.74412 14.0602 9.81229 13.6581 10.783C13.256 11.7538 12.5751 12.5835 11.7015 13.1672C10.8278 13.7509 9.80071 14.0625 8.75 14.0625C7.34148 14.0611 5.99107 13.5009 4.99509 12.5049C3.99912 11.5089 3.43895 10.1585 3.4375 8.75002Z" fill="#9DA3AE"/>
</svg>
