<svg width="16" height="12" viewBox="0 0 16 12" fill="none" xmlns="http://www.w3.org/2000/svg">
<path d="M15.5 1V1.625C15.5 1.79076 15.4342 1.94973 15.3169 2.06694C15.1997 2.18415 15.0408 2.25 14.875 2.25L1.125 2.25C0.95924 2.25 0.800269 2.18415 0.683058 2.06694C0.565848 1.94973 0.5 1.79076 0.5 1.625V1C0.5 0.83424 0.565848 0.675269 0.683058 0.558058C0.800269 0.440848 0.95924 0.375 1.125 0.375L14.875 0.375C15.0408 0.375 15.1997 0.440848 15.3169 0.558058C15.4342 0.675269 15.5 0.83424 15.5 1ZM1.125 5.375H11.125C11.2908 5.375 11.4497 5.30915 11.5669 5.19194C11.6842 5.07473 11.75 4.91576 11.75 4.75V4.125C11.75 3.95924 11.6842 3.80027 11.5669 3.68306C11.4497 3.56585 11.2908 3.5 11.125 3.5L1.125 3.5C0.95924 3.5 0.800269 3.56585 0.683058 3.68306C0.565848 3.80027 0.5 3.95924 0.5 4.125V4.75C0.5 4.91576 0.565848 5.07473 0.683058 5.19194C0.800269 5.30915 0.95924 5.375 1.125 5.375ZM14.875 6.625H1.125C0.95924 6.625 0.800269 6.69085 0.683058 6.80806C0.565848 6.92527 0.5 7.08424 0.5 7.25V7.875C0.5 8.04076 0.565848 8.19973 0.683058 8.31694C0.800269 8.43415 0.95924 8.5 1.125 8.5H14.875C15.0408 8.5 15.1997 8.43415 15.3169 8.31694C15.4342 8.19973 15.5 8.04076 15.5 7.875V7.25C15.5 7.08424 15.4342 6.92527 15.3169 6.80806C15.1997 6.69085 15.0408 6.625 14.875 6.625ZM11.125 9.75H1.125C0.95924 9.75 0.800269 9.81585 0.683058 9.93306C0.565848 10.0503 0.5 10.2092 0.5 10.375L0.5 11C0.5 11.1658 0.565848 11.3247 0.683058 11.4419C0.800269 11.5592 0.95924 11.625 1.125 11.625H11.125C11.2908 11.625 11.4497 11.5592 11.5669 11.4419C11.6842 11.3247 11.75 11.1658 11.75 11V10.375C11.75 10.2092 11.6842 10.0503 11.5669 9.93306C11.4497 9.81585 11.2908 9.75 11.125 9.75Z" fill="#CC7C2E"/>
</svg>
